<svg xmlns="http://www.w3.org/2000/svg" viewBox="0 0 64 64" role="img" aria-labelledby="title">
  <title id="title">DentCare Macedonia tooth mark</title>
  <defs>
    <linearGradient id="markGradient" x1="10" y1="8" x2="56" y2="58" gradientUnits="userSpaceOnUse">
      <stop stop-color="#2f34a6"/>
      <stop offset="1" stop-color="#69c4dd"/>
    </linearGradient>
  </defs>
  <rect width="64" height="64" rx="18" fill="url(#markGradient)"/>
  <path
    fill="#fff"
    d="M32.2 18.7c3-2.1 7.3-2.1 10.1.1 4.1 3.1 4.1 9.6 1.8 14.4-1.2 2.5-1.5 5.3-1.8 8.1-.5 4.7-1.3 8.3-4.1 8.3-2.3 0-2.7-3.4-3.1-7.1-.3-3.5-.8-6.5-3.1-6.5s-2.7 3-3.1 6.5c-.4 3.7-.8 7.1-3.1 7.1-2.8 0-3.6-3.6-4.1-8.3-.3-2.8-.6-5.6-1.8-8.1-2.3-4.8-2.3-11.3 1.8-14.4 2.9-2.2 7.1-2.2 10.1-.1l.2.1.2-.1Z"
  />
</svg>
